<svg width="51" height="26" viewBox="0 0 51 26" fill="none" xmlns="http://www.w3.org/2000/svg">
<path d="M0.657438 0.799998H11.6734C14.3614 0.799998 16.7494 1.328 18.8374 2.384C20.9254 3.416 22.5454 4.892 23.6974 6.812C24.8494 8.708 25.4254 10.904 25.4254 13.4C25.4254 15.896 24.8494 18.104 23.6974 20.024C22.5454 21.92 20.9254 23.396 18.8374 24.452C16.7494 25.484 14.3614 26 11.6734 26H0.657438V0.799998ZM11.4574 22.04C13.3054 22.04 14.9254 21.692 16.3174 20.996C17.7334 20.276 18.8134 19.268 19.5574 17.972C20.3254 16.652 20.7094 15.128 20.7094 13.4C20.7094 11.672 20.3254 10.16 19.5574 8.864C18.8134 7.544 17.7334 6.536 16.3174 5.84C14.9254 5.12 13.3054 4.76 11.4574 4.76H5.33744V22.04H11.4574ZM40.1818 17.108V26H35.5018V17.18L25.6018 0.799998H30.6058L37.9858 13.076L45.4378 0.799998H50.0458L40.1818 17.108Z" fill="black"/>
</svg>
