<?xml version="1.0" encoding="utf-8"?>
<!-- Generator: Adobe Illustrator 16.0.0, SVG Export Plug-In . SVG Version: 6.00 Build 0)  -->
<!DOCTYPE svg PUBLIC "-//W3C//DTD SVG 1.1//EN" "http://www.w3.org/Graphics/SVG/1.1/DTD/svg11.dtd">
<svg version="1.1" id="Layer_1" xmlns="http://www.w3.org/2000/svg" xmlns:xlink="http://www.w3.org/1999/xlink" x="0px" y="0px"
	 width="300px" height="300px" viewBox="0 0 300 300" enable-background="new 0 0 300 300" xml:space="preserve">
<path fill="#6C6C6C" d="M150.234,1.132C67.38,1.132,0.191,69.738,0.191,154.357c0,67.694,42.99,125.121,102.623,145.384
	c7.502,1.397,10.241-3.325,10.241-7.384c0-3.64-0.13-13.282-0.202-26.068c-41.74,9.259-50.546-20.538-50.546-20.538
	c-6.823-17.69-16.66-22.412-16.66-22.412c-13.624-9.498,1.03-9.313,1.03-9.313c15.059,1.084,22.984,15.799,22.984,15.799
	c13.385,23.404,35.119,16.644,43.669,12.73c1.363-9.902,5.241-16.662,9.526-20.484c-33.32-3.875-68.349-17.01-68.349-75.728
	c0-16.727,5.847-30.404,15.446-41.114c-1.542-3.876-6.693-19.454,1.471-40.543c0,0,12.599-4.125,41.263,15.707
	c11.968-3.399,24.805-5.107,37.565-5.162c12.746,0.055,25.574,1.763,37.564,5.162c28.651-19.832,41.228-15.707,41.228-15.707
	c8.188,21.09,3.032,36.667,1.493,40.543c9.607,10.71,15.419,24.387,15.419,41.114c0,58.864-35.082,71.815-68.511,75.601
	c5.389,4.738,10.184,14.09,10.184,28.383c0,20.482-0.181,36.999-0.181,42.031c0,4.097,2.698,8.854,10.317,7.367
	c59.578-20.3,102.523-77.689,102.523-145.367C300.29,69.738,233.109,1.132,150.234,1.132z"/>
</svg>
