<?xml version="1.0" encoding="utf-8"?>
<!-- Generator: Adobe Illustrator 16.0.0, SVG Export Plug-In . SVG Version: 6.00 Build 0)  -->
<!DOCTYPE svg PUBLIC "-//W3C//DTD SVG 1.1//EN" "http://www.w3.org/Graphics/SVG/1.1/DTD/svg11.dtd">
<svg version="1.1" id="Layer_1" xmlns="http://www.w3.org/2000/svg" xmlns:xlink="http://www.w3.org/1999/xlink" x="0px" y="0px"
	 width="300px" height="300px" viewBox="0 0 300 300" enable-background="new 0 0 300 300" xml:space="preserve">
<path fill-rule="evenodd" clip-rule="evenodd" d="M150.234,1.132C67.38,1.132,0.191,69.738,0.191,154.357
	c0,67.695,42.99,125.122,102.623,145.384c7.502,1.397,10.241-3.325,10.241-7.384c0-3.639-0.13-13.282-0.202-26.068
	c-41.74,9.259-50.546-20.538-50.546-20.538c-6.823-17.691-16.66-22.412-16.66-22.412c-13.624-9.498,1.03-9.314,1.03-9.314
	c15.059,1.084,22.984,15.799,22.984,15.799c13.385,23.404,35.119,16.644,43.669,12.73c1.363-9.901,5.241-16.662,9.526-20.483
	c-33.32-3.876-68.349-17.011-68.349-75.728c0-16.727,5.847-30.404,15.446-41.114c-1.542-3.876-6.693-19.454,1.471-40.543
	c0,0,12.599-4.125,41.263,15.707c11.968-3.399,24.805-5.107,37.565-5.162c12.746,0.055,25.574,1.763,37.565,5.162
	c28.651-19.832,41.227-15.707,41.227-15.707c8.188,21.09,3.032,36.667,1.493,40.543c9.607,10.71,15.419,24.387,15.419,41.114
	c0,58.864-35.082,71.815-68.511,75.6c5.389,4.739,10.184,14.09,10.184,28.383c0,20.483-0.181,36.999-0.181,42.032
	c0,4.096,2.699,8.854,10.318,7.366c59.578-20.299,102.523-77.689,102.523-145.366C300.29,69.738,233.11,1.132,150.234,1.132z"/>
</svg>
